<svg width="19" height="16" viewBox="0 0 19 16" fill="none" xmlns="http://www.w3.org/2000/svg">
<path d="M18.8889 1.84223C18.179 2.15021 17.4282 2.3538 16.66 2.44668C17.4705 1.96248 18.0779 1.20075 18.3694 0.302789C17.6078 0.756182 16.7741 1.07562 15.9044 1.24723C15.3232 0.616885 14.5491 0.197291 13.7037 0.0542599C12.8583 -0.0887713 11.9893 0.0528499 11.233 0.456912C10.4768 0.860975 9.87599 1.50462 9.52495 2.28691C9.17391 3.0692 9.09244 3.94588 9.29333 4.77945C7.75335 4.70156 6.24697 4.30058 4.87206 3.60255C3.49715 2.90452 2.28447 1.92505 1.31278 0.727789C0.971963 1.32295 0.792879 1.99695 0.793333 2.68279C0.792125 3.31971 0.948427 3.94704 1.24832 4.50893C1.54822 5.07083 1.98241 5.54985 2.51222 5.90334C1.89642 5.88659 1.29378 5.72135 0.755556 5.42168V5.4689C0.760171 6.3613 1.07288 7.22471 1.6408 7.91309C2.20871 8.60147 2.99696 9.07256 3.87222 9.24668C3.5353 9.34921 3.18549 9.40327 2.83333 9.40723C2.58956 9.40439 2.3464 9.38228 2.10611 9.34112C2.35536 10.1088 2.8377 10.7796 3.48602 11.2604C4.13433 11.7411 4.91638 12.0078 5.72333 12.0233C4.36069 13.0955 2.67833 13.6807 0.944444 13.6856C0.62875 13.6866 0.313306 13.6677 0 13.6289C1.77029 14.7719 3.83332 15.3787 5.94056 15.3761C7.39471 15.3912 8.8373 15.1164 10.1841 14.5678C11.5308 14.0191 12.7547 13.2076 13.7844 12.1806C14.814 11.1536 15.6286 9.93177 16.1807 8.58642C16.7329 7.24108 17.0114 5.7992 17 4.34501C17 4.18445 17 4.01446 17 3.84446C17.7411 3.29178 18.3803 2.61425 18.8889 1.84223Z" fill="white"/>
</svg>
