<svg width="48" height="48" viewBox="0 0 48 48" fill="none" xmlns="http://www.w3.org/2000/svg">
<path d="M4.78739 29.7426C3.66217 28.6174 3.03003 27.0913 3.03003 25.5C3.03003 23.9087 3.66217 22.3826 4.78739 21.2574C5.91261 20.1321 7.43873 19.5 9.03003 19.5C10.6213 19.5 12.1475 20.1321 13.2727 21.2574C14.3979 22.3826 15.03 23.9087 15.03 25.5C15.03 27.0913 14.3979 28.6174 13.2727 29.7426C12.1475 30.8679 10.6213 31.5 9.03003 31.5C7.43873 31.5 5.91261 30.8679 4.78739 29.7426Z" stroke="#2F5F75" stroke-width="1.83" stroke-linecap="round" stroke-linejoin="round"/>
<path d="M34.1534 44.6966C33.0281 43.5714 32.396 42.0453 32.396 40.454C32.396 38.8627 33.0281 37.3366 34.1534 36.2113C35.2786 35.0861 36.8047 34.454 38.396 34.454C39.9873 34.454 41.5134 35.0861 42.6386 36.2113C43.7639 37.3366 44.396 38.8627 44.396 40.454C44.396 42.0453 43.7639 43.5714 42.6386 44.6966C41.5134 45.8218 39.9873 46.454 38.396 46.454C36.8047 46.454 35.2786 45.8218 34.1534 44.6966Z" stroke="#2F5F75" stroke-width="1.83" stroke-linecap="round" stroke-linejoin="round"/>
<path d="M32.4213 11.7887C31.2961 10.6634 30.6639 9.13732 30.6639 7.54602C30.6639 5.95472 31.2961 4.4286 32.4213 3.30338C33.5465 2.17816 35.0726 1.54602 36.6639 1.54602C38.2552 1.54602 39.7814 2.17816 40.9066 3.30338C42.0318 4.4286 42.6639 5.95472 42.6639 7.54602C42.6639 9.13732 42.0318 10.6634 40.9066 11.7887C39.7814 12.9139 38.2552 13.546 36.6639 13.546C35.0726 13.546 33.5465 12.9139 32.4213 11.7887Z" stroke="#2F5F75" stroke-width="1.83" stroke-linecap="round" stroke-linejoin="round"/>
<path d="M20.838 9.09197C23.0912 8.03585 25.5496 7.48955 28.038 7.49197C28.9225 7.49048 29.8058 7.55734 30.68 7.69197" stroke="#2F5F75" stroke-width="1.83" stroke-linecap="round" stroke-linejoin="round"/>
<path d="M11.6 20.11C12.37 17.2239 13.8877 14.592 16 12.48" stroke="#2F5F75" stroke-width="1.83" stroke-linecap="round" stroke-linejoin="round"/>
<path d="M18.2819 38.432C15.5128 36.4882 13.3835 33.7658 12.1639 30.61" stroke="#2F5F75" stroke-width="1.83" stroke-linecap="round" stroke-linejoin="round"/>
<path d="M32.442 40.922C29.5558 41.6971 26.5162 41.6971 23.63 40.922" stroke="#2F5F75" stroke-width="1.83" stroke-linecap="round" stroke-linejoin="round"/>
<path d="M44.97 25.976C44.6707 29.3462 43.3774 32.5517 41.254 35.186" stroke="#2F5F75" stroke-width="1.83" stroke-linecap="round" stroke-linejoin="round"/>
<path d="M40.046 12.468C42.1578 14.5812 43.6754 17.2136 44.446 20.1" stroke="#2F5F75" stroke-width="1.83" stroke-linecap="round" stroke-linejoin="round"/>
</svg>
