<svg width="12" height="12" viewBox="0 0 12 12" fill="none" xmlns="http://www.w3.org/2000/svg">
<path d="M6 11C8.76142 11 11 8.76142 11 6C11 3.23858 8.76142 1 6 1C3.23858 1 1 3.23858 1 6C1 8.76142 3.23858 11 6 11Z" stroke="#6B7585" stroke-linecap="round" stroke-linejoin="round"/>
<path d="M6 6.5C6.82843 6.5 7.5 5.82843 7.5 5C7.5 4.17157 6.82843 3.5 6 3.5C5.17157 3.5 4.5 4.17157 4.5 5C4.5 5.82843 5.17157 6.5 6 6.5Z" stroke="#6B7585" stroke-linecap="round" stroke-linejoin="round"/>
<path d="M3.5 10.331V9.5C3.5 9.23478 3.60536 8.98043 3.79289 8.79289C3.98043 8.60536 4.23478 8.5 4.5 8.5H7.5C7.76522 8.5 8.01957 8.60536 8.20711 8.79289C8.39464 8.98043 8.5 9.23478 8.5 9.5V10.331" stroke="#6B7585" stroke-linecap="round" stroke-linejoin="round"/>
</svg>
